PathFileType	4	(X/Y/Z)	./resultDataOpenSim/trcMotMarkerGrf/sub10/qtm-04-07.trc
DataRate	CameraRate	NumFrames	NumMarkers	Units	OrigDataRate	OrigDataStartFrame	OrigNumFrames
250.000000	250.000000	9	24	m	250.000000	352	562
Frame#	Time	L.Toe.Tip			R.Toe.Tip			L.Ankle.Lat			R.Ankle.Lat			L.Ankle.Med			R.Ankle.Med			L.Heel			R.Heel			L.Knee.Lat			R.Knee.Lat			L.Knee.Med			R.Knee.Med			L.Thigh.Upper			R.Thigh.Upper			L.ASIS			R.ASIS			V.Sacral			L.Acromium			R.Acromium			C7			L.Elbow			R.Elbow			L.Wrist.Lat			R.Wrist.Lat
		X1	Y1	Z1	X2	Y2	Z2	X3	Y3	Z3	X4	Y4	Z4	X5	Y5	Z5	X6	Y6	Z6	X7	Y7	Z7	X8	Y8	Z8	X9	Y9	Z9	X10	Y10	Z10	X11	Y11	Z11	X12	Y12	Z12	X13	Y13	Z13	X14	Y14	Z14	X15	Y15	Z15	X16	Y16	Z16	X17	Y17	Z17	X18	Y18	Z18	X19	Y19	Z19	X20	Y20	Z20	X21	Y21	Z21	X22	Y22	Z22	X23	Y23	Z23	X24	Y24	Z24

352	1.404	0.052641787	-0.025589251	-0.11689181	0.80271845	0.03847864	0.05444727	0.02993023	0.1064098	-0.16928658	0.66034867	0.055146093	0.091231316	0.061453312	0.1119074	-0.091273159	0.67756839	0.07767032	0.0058743678	-0.014860851	0.14970919	-0.11991648	0.60877845	0.029702318	0.048418148	0.29402348	0.39026002	-0.19097722	0.67921176	0.45375952	0.097093454	0.31835753	0.34006083	-0.081261318	0.66312022	0.46045824	-0.029995344	0.37954566	0.75854287	-0.20108469	0.50149792	0.82333161	0.16851034	0.46603984	0.86180322	-0.15552101	0.53382368	0.89966469	0.073006505	0.30798745	0.8951183	0.013290385	0.48239158	1.3569948	-0.16146338	0.47323672	1.3362316	0.15656057	0.39437914	1.3793152	-0.0077294552	0.5045358	1.0160184	-0.25689723	0.30579435	1.0369632	0.15617944	0.72906385	0.94695087	-0.17429737	0.26151879	0.83553231	0.28187356
353	1.408	0.055928744	-0.023419902	-0.11758133	0.80275956	0.038445363	0.054522816	0.037302234	0.11011855	-0.16970567	0.66042331	0.055072764	0.09126297	0.068920409	0.11499115	-0.091562658	0.67781939	0.077561571	0.0058580139	-0.0062383632	0.15452205	-0.12010996	0.60879507	0.029678844	0.048454386	0.30677047	0.39045468	-0.19189675	0.68238523	0.45318027	0.09742877	0.32896298	0.33961522	-0.082407174	0.66723471	0.46061786	-0.029618833	0.38629014	0.75901825	-0.20076918	0.5066742	0.82444736	0.16911185	0.47227318	0.86248978	-0.15449769	0.5398669	0.90069586	0.074067602	0.31356433	0.89639941	0.013343978	0.48821511	1.3582169	-0.16049724	0.4786746	1.3375421	0.15746164	0.39969098	1.3803429	-0.0070024768	0.5082063	1.0176301	-0.25711957	0.31319525	1.0373183	0.15818083	0.73139475	0.94408626	-0.1752888	0.27036263	0.83558792	0.28395204
354	1.412	0.059498209	-0.021176859	-0.1183494	0.8027649	0.038417674	0.05460204	0.044768103	0.1139597	-0.16999506	0.66047343	0.054996525	0.0913054	0.076526883	0.11810328	-0.091755901	0.67801141	0.077468496	0.0058869915	0.0024692453	0.15927022	-0.11993397	0.60878619	0.029657019	0.04849635	0.31989802	0.39073703	-0.19289394	0.68545267	0.45263023	0.097880355	0.33962804	0.33942475	-0.08343402	0.67124575	0.4606021	-0.029248741	0.39292121	0.75969403	-0.20039788	0.51184049	0.82547321	0.16978665	0.47836459	0.863291	-0.1535541	0.54583841	0.90171305	0.075127839	0.31895963	0.8977034	0.01347126	0.49399475	1.359451	-0.15958383	0.48403041	1.3388747	0.15833359	0.40491789	1.381448	-0.0062633732	0.51183063	1.0193013	-0.25745506	0.3204145	1.0375114	0.16013913	0.73364166	0.94120603	-0.17632971	0.279361	0.83563946	0.28608273
355	1.416	0.063432062	-0.018827822	-0.11925354	0.80274073	0.03839335	0.054680863	0.052331222	0.11791426	-0.17015358	0.66048598	0.05491947	0.091345343	0.084265407	0.12123698	-0.09186047	0.67816574	0.077386819	0.0059342745	0.011276674	0.163979	-0.11953506	0.60875722	0.029632624	0.048530262	0.33050173	0.39102529	-0.19381157	0.68840573	0.45211456	0.098433608	0.35023487	0.33951981	-0.084198055	0.67518617	0.46042026	-0.028890532	0.39945474	0.7605462	-0.1999916	0.51697002	0.82639639	0.17050957	0.48433689	0.86425581	-0.152684	0.55157805	0.9026717	0.076078311	0.32422192	0.89902602	0.013650062	0.4997245	1.3607092	-0.15871424	0.48930183	1.3402372	0.15918082	0.4100996	1.3826342	-0.0055222645	0.51540876	1.02104	-0.2578973	0.32744934	1.0375991	0.16197837	0.73580376	0.93837309	-0.17742665	0.28861439	0.83569536	0.2882745
356	1.42	0.067783692	-0.016320023	-0.12033125	0.80269695	0.038371748	0.054756043	0.059992888	0.1219556	-0.17018753	0.6604562	0.054846672	0.091376816	0.092124381	0.12441064	-0.091885247	0.67830037	0.077318058	0.0059886775	0.020157445	0.16866001	-0.11907208	0.60871744	0.029603547	0.048544518	0.33683097	0.39125991	-0.19449412	0.6912436	0.45163151	0.099080104	0.36073213	0.33991782	-0.084644407	0.67908204	0.46009641	-0.028526452	0.40590542	0.76154336	-0.19955937	0.52207494	0.82723299	0.17127033	0.49024344	0.86541684	-0.15188884	0.55710439	0.90359129	0.07692688	0.3294108	0.90036556	0.013873053	0.50540283	1.3619952	-0.15788052	0.49449689	1.341638	0.16000396	0.41528989	1.3839011	-0.004831339	0.51895842	1.0228498	-0.25835711	0.33437126	1.0376658	0.16371782	0.73784826	0.93561165	-0.17860321	0.29810897	0.83576851	0.29051886
357	1.424	0.072589367	-0.013596056	-0.12159228	0.80264451	0.03835351	0.054824985	0.067739847	0.12605506	-0.17009718	0.66039528	0.054784263	0.091400359	0.10009743	0.1276483	-0.091839579	0.67842302	0.077265145	0.0060489482	0.029031406	0.17328304	-0.118588	0.60868032	0.029571806	0.048528208	0.34025725	0.39148198	-0.19491894	0.6939612	0.45117041	0.099801471	0.37117836	0.34061634	-0.084855297	0.68289782	0.45966218	-0.028121055	0.41228571	0.76265791	-0.19910499	0.5271786	0.82801362	0.17206105	0.49613616	0.86678051	-0.15117998	0.56254538	0.90451938	0.077754657	0.3346171	0.90168472	0.014127575	0.5110278	1.3633113	-0.15707787	0.49962713	1.343077	0.16079542	0.42053899	1.3852286	-0.0042305388	0.52249225	1.0247054	-0.2587397	0.34126458	1.0377788	0.16543875	0.7397527	0.93291171	-0.1798711	0.30773774	0.83587138	0.29279467
358	1.428	0.077877175	-0.010615661	-0.12301366	0.80259351	0.038337791	0.054888309	0.075552932	0.13019669	-0.1698623	0.66032521	0.05473431	0.091419072	0.10819123	0.13096524	-0.091729546	0.67853677	0.077229433	0.0061156893	0.037831439	0.17779867	-0.11802029	0.6086571	0.02954125	0.048478215	0.3437592	0.39179167	-0.19517056	0.69653115	0.45070869	0.10055788	0.38166051	0.34158355	-0.084951064	0.68654645	0.45914332	-0.027638568	0.41860977	0.76386589	-0.19862956	0.5322804	0.82876066	0.17286863	0.50201975	0.86833654	-0.15056917	0.56797096	0.90547258	0.078603438	0.33991578	0.90293622	0.014405952	0.51659173	1.3646653	-0.15630028	0.50470118	1.3445476	0.16154942	0.42582666	1.3866151	-0.0037058584	0.52600482	1.0265629	-0.25901344	0.34815217	1.0379669	0.1671966	0.7415208	0.93026079	-0.18122822	0.31742713	0.83601237	0.29508617
359	1.432	0.083658787	-0.0073714141	-0.12455024	0.80255081	0.038321796	0.054950276	0.083444248	0.13437811	-0.16948334	0.66026424	0.054693392	0.091437053	0.11641498	0.13436485	-0.091561431	0.67864756	0.077209649	0.006188507	0.046567058	0.18218998	-0.11733477	0.60864582	0.029514894	0.048413434	0.34941645	0.39226192	-0.19533823	0.69891571	0.45022419	0.10130295	0.39219487	0.3427592	-0.084984346	0.68998222	0.45855597	-0.027062225	0.42488706	0.76514795	-0.19813672	0.53731186	0.82946848	0.17365273	0.50785328	0.87007014	-0.15006529	0.57338148	0.90643823	0.079468618	0.34530591	0.90410979	0.014716589	0.52208671	1.3660656	-0.15554174	0.50972477	1.3460431	0.16227279	0.43105175	1.3880972	-0.0032022895	0.52947135	1.0284034	-0.25920206	0.35500567	1.0382261	0.1689835	0.74317451	0.92765802	-0.18266189	0.32719369	0.8362009	0.29739268
360	1.436	0.089931614	-0.0038860493	-0.12616031	0.80251818	0.038304322	0.055017002	0.091484418	0.13859134	-0.16902749	0.66021739	0.054656281	0.091459433	0.12477164	0.13784042	-0.091345512	0.67876252	0.077203231	0.0062672654	0.055306718	0.18648406	-0.11658237	0.60863768	0.029493364	0.048358247	0.35773128	0.39291224	-0.19546833	0.70109146	0.44970732	0.10200829	0.4027286	0.34407401	-0.084925336	0.69324042	0.45791965	-0.026408913	0.43111612	0.76649473	-0.19763357	0.54214133	0.83010904	0.1743389	0.51359662	0.87196626	-0.14967469	0.57876329	0.90740057	0.080338478	0.35073275	0.90522728	0.015073117	0.52751168	1.367516	-0.15479982	0.5147002	1.3475607	0.162975	0.43615777	1.3896848	-0.0026823487	0.53285593	1.0302491	-0.25932822	0.36181153	1.038541	0.17076656	0.74474455	0.9251156	-0.18415177	0.33708616	0.83644941	0.29972062
